<svg width="144" height="54" viewBox="0 0 144 54" fill="none" xmlns="http://www.w3.org/2000/svg">
<path d="M12.4306 40.5074C10.2883 40.5074 8.44208 40.0564 6.89178 39.1544C5.35558 38.2524 4.17171 36.9558 3.34019 35.2645C2.52276 33.5733 2.11404 31.5438 2.11404 29.1761C2.11404 26.8788 2.52981 24.8846 3.36133 23.1934C4.20695 21.5021 5.39786 20.1985 6.93406 19.2824C8.48436 18.3522 10.3165 17.8871 12.4306 17.8871C14.2627 17.8871 15.9117 18.2606 17.3774 19.0076C18.8573 19.7404 20.027 20.8679 20.8867 22.39C21.7605 23.898 22.1974 25.8077 22.1974 28.1191C22.1974 28.5137 22.1904 29.007 22.1763 29.5989C22.1622 30.1768 22.1129 30.7546 22.0283 31.3324H8.28705C8.28705 32.1076 8.45617 32.7841 8.79442 33.3619C9.13267 33.9257 9.61185 34.3626 10.232 34.6726C10.8521 34.9827 11.585 35.1377 12.4306 35.1377C13.5299 35.1377 14.446 34.9615 15.1788 34.6092C15.9258 34.2569 16.6446 33.672 17.3352 32.8545L20.9713 36.4907C19.9566 37.7168 18.7516 38.6963 17.3563 39.4292C15.961 40.148 14.3191 40.5074 12.4306 40.5074ZM8.37161 26.597H16.1513C16.0385 25.85 15.8201 25.2299 15.4959 24.7366C15.1718 24.2433 14.7419 23.8769 14.2064 23.6373C13.6708 23.3836 13.0225 23.2568 12.2614 23.2568C11.2326 23.2568 10.3659 23.5528 9.66118 24.1447C8.9565 24.7366 8.52664 25.5541 8.37161 26.597Z" fill="white"/>
<path d="M41.3216 40.5074L34.0493 25.4977C34.0352 25.4554 34.0141 25.399 33.9859 25.3285C33.9577 25.244 33.9225 25.1312 33.8802 24.9903C33.8802 25.1171 33.8802 25.2299 33.8802 25.3285C33.8802 25.4272 33.8802 25.4977 33.8802 25.54V40H27.1998V10.4034H34.007L40.772 25.1171C40.927 25.4272 41.0609 25.7232 41.1736 26.005C41.2864 26.2728 41.3921 26.5688 41.4907 26.8929C41.6035 26.5688 41.7092 26.2587 41.8078 25.9628C41.9206 25.6668 42.0404 25.3849 42.1672 25.1171L49.1858 10.4034H55.4011V40H48.7208V25.4977C48.7208 25.4131 48.7208 25.3215 48.7208 25.2228C48.7208 25.1242 48.7208 25.0467 48.7208 24.9903C48.6785 25.0749 48.6362 25.1594 48.5939 25.244C48.5657 25.3145 48.5375 25.3708 48.5093 25.4131L41.3216 40.5074Z" fill="white"/>
<path d="M70.6011 40.5074C67.5005 40.5074 65.0553 39.5067 63.2654 37.5054C61.4755 35.49 60.5805 32.7277 60.5805 29.2184C60.5805 26.907 60.9892 24.9057 61.8067 23.2145C62.6241 21.5092 63.7798 20.1985 65.2737 19.2824C66.7817 18.3522 68.5575 17.8871 70.6011 17.8871C72.6306 17.8871 74.3852 18.3522 75.8651 19.2824C77.359 20.1985 78.5076 21.5021 79.311 23.1934C80.1284 24.8846 80.5371 26.8929 80.5371 29.2184C80.5371 31.5579 80.1354 33.5733 79.3321 35.2645C78.5428 36.9417 77.4013 38.2383 75.9073 39.1544C74.4275 40.0564 72.6588 40.5074 70.6011 40.5074ZM70.6011 34.3767C71.7709 34.3767 72.6658 33.9327 73.2859 33.0448C73.9201 32.1428 74.2372 30.8673 74.2372 29.2184C74.2372 27.5694 73.9131 26.294 73.2648 25.392C72.6306 24.4759 71.7427 24.0178 70.6011 24.0178C69.4595 24.0178 68.5575 24.4829 67.8951 25.4131C67.2468 26.3433 66.9227 27.6117 66.9227 29.2184C66.9227 30.8251 67.2468 32.0864 67.8951 33.0025C68.5575 33.9186 69.4595 34.3767 70.6011 34.3767Z" fill="white"/>
<path d="M90.8827 40L82.9762 18.3945H89.6143L93.7578 30.1908C93.8705 30.4727 93.9762 30.7969 94.0749 31.1633C94.1735 31.5297 94.2652 31.8821 94.3497 32.2203C94.4343 31.8821 94.5259 31.5368 94.6245 31.1844C94.7373 30.818 94.843 30.4868 94.9416 30.1908L99.0852 18.3945H105.723L97.8167 40H90.8827Z" fill="white"/>
<path d="M109.989 40V18.3945H116.331V40H109.989ZM113.16 16.4918C112.174 16.4918 111.321 16.1325 110.602 15.4137C109.883 14.6949 109.524 13.8423 109.524 12.8557C109.524 11.8832 109.876 11.0517 110.581 10.3611C111.286 9.65645 112.145 9.30411 113.16 9.30411C114.203 9.30411 115.07 9.6494 115.76 10.34C116.451 11.0165 116.796 11.8551 116.796 12.8557C116.796 13.8704 116.444 14.7301 115.739 15.4348C115.035 16.1395 114.175 16.4918 113.16 16.4918Z" fill="white"/>
<path d="M131.965 40.5074C129.823 40.5074 127.976 40.0564 126.426 39.1544C124.89 38.2524 123.706 36.9558 122.874 35.2645C122.057 33.5733 121.648 31.5438 121.648 29.1761C121.648 26.8788 122.064 24.8846 122.896 23.1934C123.741 21.5021 124.932 20.1985 126.468 19.2824C128.019 18.3522 129.851 17.8871 131.965 17.8871C133.797 17.8871 135.446 18.2606 136.912 19.0076C138.391 19.7404 139.561 20.8679 140.421 22.39C141.295 23.898 141.732 25.8077 141.732 28.1191C141.732 28.5137 141.725 29.007 141.711 29.5989C141.696 30.1768 141.647 30.7546 141.563 31.3324H127.821C127.821 32.1076 127.99 32.7841 128.329 33.3619C128.667 33.9257 129.146 34.3626 129.766 34.6726C130.386 34.9827 131.119 35.1377 131.965 35.1377C133.064 35.1377 133.98 34.9615 134.713 34.6092C135.46 34.2569 136.179 33.672 136.869 32.8545L140.506 36.4907C139.491 37.7168 138.286 38.6963 136.891 39.4292C135.495 40.148 133.853 40.5074 131.965 40.5074ZM127.906 26.597H135.686C135.573 25.85 135.354 25.2299 135.03 24.7366C134.706 24.2433 134.276 23.8769 133.741 23.6373C133.205 23.3836 132.557 23.2568 131.796 23.2568C130.767 23.2568 129.9 23.5528 129.195 24.1447C128.491 24.7366 128.061 25.5541 127.906 26.597Z" fill="white"/>
</svg>
